<svg xmlns="http://www.w3.org/2000/svg" width="820" height="386" viewBox="0 0 820 386" role="img" aria-label="Dejavu benchmark: tokens an agent reads per scenario, with and without Dejavu">
  <style>
    text { font-family: -apple-system, 'Segoe UI', Helvetica, Arial, sans-serif; font-size: 13px; fill: #e6edf3; }
    .lbl { font-size: 12.5px; }
    .sm  { font-size: 11.5px; fill: #9198a1; }
    .cnt { font-size: 11px; font-variant-numeric: tabular-nums; }
    .mut { fill: #9198a1; }
    .mutb { fill: #9198a1; font-weight: 600; font-size: 12px; }
    .withc { fill: #3fb950; font-weight: 600; }
    .pct { font-weight: 700; font-size: 15px; fill: #3fb950; font-variant-numeric: tabular-nums; }
    .without { fill: #6e7681; }
    .with { fill: #3fb950; }
    .rule { stroke: #30363d; stroke-width: 1; }
    .title { font-size: 15px; font-weight: 600; }
  </style>
  <text x="30" y="28" class="title">Tokens the agent reads — with vs without Dejavu</text>
  <text x="30" y="46" class="sm">deterministic suite through the real pipeline · reproduce with `dejavu bench`</text>
  <line x1="30" y1="330" x2="790" y2="330" class="rule"/><text x="114.0" y="106" text-anchor="middle" class="pct">−56.0%</text><text x="94.0" y="134" text-anchor="middle" class="cnt mut">5,561</text><text x="134.0" y="241" text-anchor="middle" class="cnt withc">2,443</text><rect x="79.0" y="140" width="30" height="190" rx="4" class="without"/><rect x="119.0" y="247" width="30" height="83" rx="4" class="with"/><text x="114.0" y="350" text-anchor="middle" class="lbl">js-validation-loop</text><text x="262.0" y="106" text-anchor="middle" class="pct">−90.7%</text><text x="242.0" y="134" text-anchor="middle" class="cnt mut">10,329</text><text x="282.0" y="306" text-anchor="middle" class="cnt withc">954</text><rect x="227.0" y="140" width="30" height="190" rx="4" class="without"/><rect x="267.0" y="312" width="30" height="18" rx="4" class="with"/><text x="262.0" y="350" text-anchor="middle" class="lbl">git-workflow</text><text x="410.0" y="106" text-anchor="middle" class="pct">−93.1%</text><text x="390.0" y="134" text-anchor="middle" class="cnt mut">9,346</text><text x="430.0" y="311" text-anchor="middle" class="cnt withc">644</text><rect x="375.0" y="140" width="30" height="190" rx="4" class="without"/><rect x="415.0" y="317" width="30" height="13" rx="4" class="with"/><text x="410.0" y="350" text-anchor="middle" class="lbl">search-loop</text><text x="558.0" y="106" text-anchor="middle" class="pct">−99.9%</text><text x="538.0" y="134" text-anchor="middle" class="cnt mut">1,057,554</text><text x="578.0" y="321" text-anchor="middle" class="cnt withc">241</text><rect x="523.0" y="140" width="30" height="190" rx="4" class="without"/><rect x="563.0" y="327" width="30" height="3" rx="4" class="with"/><text x="558.0" y="350" text-anchor="middle" class="lbl">large-output</text><text x="706.0" y="106" text-anchor="middle" class="pct"><tspan class="mutb">passthrough ✓</tspan></text><text x="686.0" y="134" text-anchor="middle" class="cnt mut">6,444</text><text x="726.0" y="134" text-anchor="middle" class="cnt withc">6,444</text><rect x="671.0" y="140" width="30" height="190" rx="4" class="without"/><rect x="711.0" y="140" width="30" height="190" rx="4" class="with"/><text x="706.0" y="350" text-anchor="middle" class="lbl">machine-safety</text><rect x="500" y="60" width="12" height="12" rx="3" class="without"/><text x="518" y="71" class="sm">without Dejavu</text><rect x="640" y="60" width="12" height="12" rx="3" class="with"/><text x="658" y="71" class="sm">with Dejavu</text>
  <text x="30" y="374" class="sm">1,078,508 tokens saved across the suite (99.0% overall) · bars scaled per scenario, real token counts labeled</text>
</svg>
